<svg id="siita_logo_main_91x38" xmlns="http://www.w3.org/2000/svg" xmlns:xlink="http://www.w3.org/1999/xlink" width="91" height="38" viewBox="0 0 91 38">
  <defs>
    <clipPath id="clip-path">
      <rect id="사각형_3606" data-name="사각형 3606" width="91" height="38" fill="none"/>
    </clipPath>
  </defs>
  <g id="그룹_1438" data-name="그룹 1438" clip-path="url(#clip-path)">
    <path id="패스_7465" data-name="패스 7465" d="M17.331,28.2a2.055,2.055,0,0,0-1.221-1.715,3.013,3.013,0,0,0-.927-.676l-.326-.179a5.536,5.536,0,0,1-.9-.379c-.409-.194-.949-.452-1.132-.534l-.327.052-.09.178a1.407,1.407,0,0,1-.55.1,3.061,3.061,0,0,1-.767-.123,6.642,6.642,0,0,0-2.21.386,2.024,2.024,0,0,0-.838.56,2.907,2.907,0,0,1-.961.664,2.89,2.89,0,0,1-.267.186,1.381,1.381,0,0,0-.358.291c-.272.333-.476.566-.744.88,0,.086-.01.18-.011.345l-.35.238a1.6,1.6,0,0,1-.773.353.533.533,0,0,1-.356-.2l-.193-.266-.16.288A9.023,9.023,0,0,0,3,30.826c-.148.61-.143,1.012.007,1.215a1.337,1.337,0,0,1,.112,1.013c-.069.4-.084.572.375.939a1.862,1.862,0,0,1-.023.784.919.919,0,0,0,.162.916A7.9,7.9,0,0,0,5.58,39.079a8.209,8.209,0,0,0,2.576,3.055,4.231,4.231,0,0,1,1.987,1.881c.051.173.172.27.366.418a1.5,1.5,0,0,1,.591.795,2.121,2.121,0,0,1,.073,1.231l-.008.266a.989.989,0,0,1-.378.887.894.894,0,0,1-.267.393.515.515,0,0,1-.454.336l-.325-.029a2.485,2.485,0,0,0-.333.082,2.094,2.094,0,0,1-.575.105,2.346,2.346,0,0,1-.5-.075,1.689,1.689,0,0,1-.439.058,3.693,3.693,0,0,1-1.435-.4,5.959,5.959,0,0,0-.714-.272A4.537,4.537,0,0,1,3.4,46.262l-.654-.316-.257-.109-.031.28c0,.025-.026.556-.046.991l-.484-.623-.167.171a.747.747,0,0,1-.557.26l-.319-.022-.274,0,.074.264c.161.576.218.851.1,1.068A.673.673,0,0,1,.3,48.51l-.3.1.215.238c.37.413.311.565.162.834l.078.355.106.061a1.476,1.476,0,0,0,.351.145c.4.114.518.286.7,1.047a3.266,3.266,0,0,1,.3.509l.282.106,0,0-.087.2a.337.337,0,0,1,.2.258l-.015.169.161.051a12.071,12.071,0,0,1,1.3.513,5.7,5.7,0,0,0,2.309.661c.053,0,.183-.008.288-.008.076,0,.137.005.145.019a8,8,0,0,0,3.253.66,8.221,8.221,0,0,0,5.756-2.21l.175-.27a6.7,6.7,0,0,0,1.317-2.988c-.016-.444,0-.9.019-1.355a6.38,6.38,0,0,0-.569-3.638c-.013-.161-.143-.283-.444-.563a3.5,3.5,0,0,1-.285-.337l-.106-.237a1.7,1.7,0,0,1-.069-.827c-.1-.121-.277-.3-.4-.417a2.178,2.178,0,0,1-.569-.7,4.7,4.7,0,0,0-.69-1.175,21.729,21.729,0,0,0-2.944-3.057c-.528-.482-1.059-.967-1.6-1.516a2.509,2.509,0,0,1-.295-1.593,3.192,3.192,0,0,0-.038-.861,2.183,2.183,0,0,1,.069-2,1.689,1.689,0,0,1,1.485-.624,4.685,4.685,0,0,1,1.638.331,1.242,1.242,0,0,1,.815.546,1.726,1.726,0,0,0,.395.366,2.531,2.531,0,0,0,.52.557c.186.163.4.348.781.661.113-.026.25-.066.375-.106l.171-.131.289-.089a2.843,2.843,0,0,0,.842-.421c.456-.079.738-.155.8-.505a2.816,2.816,0,0,1,.373-.624c.183-.254.409-.569.322-.817a1.08,1.08,0,0,0-.284-.487.982.982,0,0,1-.266-1.136" transform="translate(0 -16.435)" fill="#1a1311"/>
    <path id="패스_7466" data-name="패스 7466" d="M222.62,45.576A8.414,8.414,0,0,0,221.8,44a26.062,26.062,0,0,1-1.826-3.957,30.469,30.469,0,0,0-1.388-3.165,5.489,5.489,0,0,0-.256-.491,3.066,3.066,0,0,1-.489-1.553,1.04,1.04,0,0,1-.139-.19,1.016,1.016,0,0,1-.044-.454l-.1-.19-.08-.066a2.151,2.151,0,0,1-.606-1.524,1.821,1.821,0,0,0-.431-1.216l-.08-.535a2.541,2.541,0,0,0-.584-1.539,3.072,3.072,0,0,1-.153-.418l-.095-.1h-.153l-.183-.176a.859.859,0,0,0-.438-.066,1.291,1.291,0,0,1-.92-.315c-.3-.007-.46-.212-.628-.462l-.168-.169h-.109a2.61,2.61,0,0,1-1.235-.418,2.3,2.3,0,0,0-1.015-.366,5.3,5.3,0,0,1-1.767-.337,3.393,3.393,0,0,1-.635.059,7.9,7.9,0,0,1-.825-.059c-.263-.022-.519-.051-.782-.051a2.588,2.588,0,0,0-.745.1,11.987,11.987,0,0,0-6.91,4.675,13.953,13.953,0,0,0-.526,1.737,12.215,12.215,0,0,1-.526,1.729,3.437,3.437,0,0,0-.007.4,2.8,2.8,0,0,1-.146,1.158,1.932,1.932,0,0,1,.153,1.092,1.81,1.81,0,0,0,.081.836c.058.176,0,.337-.059.733a9.967,9.967,0,0,0,2.746,5.173c2.191,2.411,4.324,4.052,7.589,4.228a12.865,12.865,0,0,0,1.614.11,4.638,4.638,0,0,0,2.921-.806l.526-.322a4.38,4.38,0,0,0,1.716-1.509.668.668,0,0,1,.708-.535c.036,0,.081.007.131.007a1.626,1.626,0,0,1,.585.938,1.871,1.871,0,0,0,.292.608l.219.366c.343.579.664,1.129,1.337,1.129a4.48,4.48,0,0,1,.818.146c.562.242.241.161.745.469l.526.029s.131-.447.256-.528a2.491,2.491,0,0,1,.759-.286c.007-.007.015-.007.022-.015.175-.132-.021-.342.154-.467.146-.1.528.048.7.055a.132.132,0,0,0,.117-.029.194.194,0,0,0,.058-.147.973.973,0,0,0-.029-.41c-.022-.066-.178-.277-.193-.351a.145.145,0,0,1,.088-.169c.037-.007.081,0,.117-.007.073-.015.1-.11.109-.19a1.167,1.167,0,0,0,.007-.616m-11-7.51a4.488,4.488,0,0,1-.4,1.81,5.482,5.482,0,0,0-.292,1.018,1.8,1.8,0,0,1-1.607,1.158,1.431,1.431,0,0,1-.248-.029v.007a1.378,1.378,0,0,1-.752-.315l-.3-.015-.08.015a1.807,1.807,0,0,1-.665-.161,1.368,1.368,0,0,0-.489-.117l-.241-.066a4.022,4.022,0,0,1-.964-1.245,3.468,3.468,0,0,0-1.541-1.568,1.9,1.9,0,0,1-.372-1.011,2.391,2.391,0,0,0-.117-.535c-.2-.315-.117-.579.007-.938a3.883,3.883,0,0,0,.16-.615c.037-.212.066-.411.095-.652a1.032,1.032,0,0,1,.2-1.1,1.875,1.875,0,0,0,.2-.337,2.809,2.809,0,0,1,2.491-1.642h.029a10.447,10.447,0,0,1,1.892.139l.759.125a3.844,3.844,0,0,1,.416-.022,1.772,1.772,0,0,1,1.388.5,1.244,1.244,0,0,1,.227.931,7.425,7.425,0,0,1,.2,4.667" transform="translate(-131.661 -17.445)" fill="#1a1311"/>
    <path id="패스_7467" data-name="패스 7467" d="M75.987,40.965a4.419,4.419,0,0,1-.577-.184l-.835-.042-.5.069-.09-.162-.168.068a1.19,1.19,0,0,1-.467.083s-.2-.018-.351-.035l-.255.027-.237.065-.044.032c-.2.011-.326.21-.47.445a1.651,1.651,0,0,1-.319.411l-.245.178c-.523.37-1.115.789-1.2,1.4a6.175,6.175,0,0,0-.24,1.458l-.058.578a2.813,2.813,0,0,1-.191.47,1.586,1.586,0,0,0-.2.845.69.69,0,0,1-.179.579l-.179.136,0,.105c.041.952.029,1.91.017,2.93a21.045,21.045,0,0,0,.873,7.686l.139.322.078.076.268.34a15.856,15.856,0,0,0,1.023,1.225,3,3,0,0,0,2,1,4.892,4.892,0,0,1,.509.054,3.51,3.51,0,0,0,.377.039h.041l.4-.116.061-.066a.984.984,0,0,0,.526-.458,2.146,2.146,0,0,1,.406-.454c.084-.069.107-.177.134-.39a1.135,1.135,0,0,1,.351-.722c.081-.163,0-.4-.212-.934a.447.447,0,0,1-.005-.563l.1-.122-.09-.128c-.1-.137-.1-.27-.149-.654a1.009,1.009,0,0,1-.279-.875,1.149,1.149,0,0,0-.106-.6,26.751,26.751,0,0,1-.042-7.334,3.118,3.118,0,0,1,.1-1,1.658,1.658,0,0,0,.04-.557,1.09,1.09,0,0,1-.191-.83c.051-.272.087-.554.12-.843a5.051,5.051,0,0,1,.684-2.359l.034-.3a.662.662,0,0,1,.107-.432l.177-.226-.268-.1c-.11-.042-.244-.079-.414-.126" transform="translate(-46.045 -27.024)" fill="#1a1311"/>
    <path id="패스_7468" data-name="패스 7468" d="M112.423,37.626c-.283-.115-.373-.323-.592-.527l-.2.024-.048.027a3.16,3.16,0,0,1-1.174.321,6.061,6.061,0,0,0-1.129.253.717.717,0,0,1-.565-.29l-.385-.447.017.591a2.294,2.294,0,0,1-.878,1.669,2.421,2.421,0,0,0-.682.96A20.044,20.044,0,0,0,106.027,44a1.215,1.215,0,0,1-.145.825l-.082.3.013.066a8.466,8.466,0,0,1,.041,2.205,10.66,10.66,0,0,0-.03,1.3,16.344,16.344,0,0,1-.021,3.371,2.538,2.538,0,0,1,.339,1.347,4.111,4.111,0,0,0,.11.8,2.585,2.585,0,0,0,.113.74,4.107,4.107,0,0,1,.129.712l.009.257a1.269,1.269,0,0,0,.348,1.013A1.556,1.556,0,0,0,107.6,58a3.126,3.126,0,0,1,.726.7c.187.266.251.387.279.387.011,0,.015-.015.02-.044l.053.339.41-.068c.232,0,.422.086.817.139l.369-.092.193-.074.124.218.145.1.479.106.075-.109a.919.919,0,0,1,.249-.24c.339-.121.523-.428.743-.794.139-.229.3-.489.573-.9a1.315,1.315,0,0,1,.047-.653.866.866,0,0,0,.034-.434c-.1-.491-.164-.978-.234-1.563-.034-.268-.068-.538-.111-.8a30.225,30.225,0,0,1-.343-3.806c-.024-.477-.048-.962-.083-1.471l.029-1.08a21.305,21.305,0,0,1,.248-3.289,4.1,4.1,0,0,1-.022-1.7,4.025,4.025,0,0,0,.007-1.182.911.911,0,0,1-.064-.549,3.25,3.25,0,0,0,.084-.685,3.061,3.061,0,0,1,.167-.991,9.761,9.761,0,0,0,.262-1.017l-.2-.045.28-.282.047-.205-.2-.047a.759.759,0,0,1-.369-.239" transform="translate(-70.42 -24.592)" fill="#1a1311"/>
    <path id="패스_7469" data-name="패스 7469" d="M155.56,10l-.385-.063-.022-.267-.088-.156-.1-.055c-.089-.051-.307-.1-.6-.249a.514.514,0,0,0-.461-.2l-.1.037a.352.352,0,0,1-.091.054c-.05-.018-.094-.136-.094-.136l-.124.078-.049.038-.154-.145a1.633,1.633,0,0,0-.552-.081,2.465,2.465,0,0,0-.451.026,1.512,1.512,0,0,0-.238.143h-.018l-.417-.1a1.359,1.359,0,0,0-.315-.034h-.01c-.491.016-.484-.062-.645-.02a1.877,1.877,0,0,1-.323.062c-.081.008-.184.018-.291.018-.247,0-.31-.054-.321-.065a1.468,1.468,0,0,1-.174-.722,3.987,3.987,0,0,1,.242-1.793,1.659,1.659,0,0,0,.326-1.23,3.661,3.661,0,0,1-.039-1.47.974.974,0,0,0,.208-.619,1.719,1.719,0,0,0-.142-.495,1.978,1.978,0,0,1-.188-.761c.179-.283.33-.492.446-.651l.144-.2-.748-.4a1.121,1.121,0,0,1-.269-.393L149.451,0l-.165.043a3.968,3.968,0,0,1-1.139.169L147.043.174a4.252,4.252,0,0,1-1.329.342,18.047,18.047,0,0,0-1.15,1.718l-.212.172a.642.642,0,0,0-.136.419.6.6,0,0,1-.319.558,3.4,3.4,0,0,0-.072.37,1.19,1.19,0,0,1-.111.415,2.52,2.52,0,0,0-.2.81c0,.127.007.247.015.361a1.139,1.139,0,0,1-.032.524,1.641,1.641,0,0,0-.209.775,1.341,1.341,0,0,0,.019.709,3.764,3.764,0,0,0-.045.418,1.878,1.878,0,0,1-.077.486c-.012.1-.019.214-.028.373-.007.135,0,.276,0,.419.014.482.005.787-.252.959a2.02,2.02,0,0,1-.48.259l-.311.141a3.53,3.53,0,0,0-1.034.673,1.322,1.322,0,0,1-.887.408,1.931,1.931,0,0,0-.426.114,1.709,1.709,0,0,0-.433.175,1.726,1.726,0,0,1-.788.241h0a3.611,3.611,0,0,1-.527-.081l-.27.2-.039.186-.1.2.2.091a1.1,1.1,0,0,1,.781,1.152c-.017.386-.023.776-.029,1.161l.116.623a1.109,1.109,0,0,1,.385.313.856.856,0,0,0,.393.08,2.18,2.18,0,0,1,.932.262c.11-.029.233-.073.39-.127a11.053,11.053,0,0,1,1.649-.271l.256.082a.461.461,0,0,1,.222.264,2.022,2.022,0,0,1,.08.558c-.008.409-.03.868-.054,1.374a38.345,38.345,0,0,0,.379,8.717,26.719,26.719,0,0,0,1.547,5.519,12.617,12.617,0,0,0,1.069,1.735,1.053,1.053,0,0,1,.13.286,1.131,1.131,0,0,0,.238.445l.337.339a9.042,9.042,0,0,0,2.118,1.737.834.834,0,0,1,.385.146,1.154,1.154,0,0,0,.572.2.418.418,0,0,0,.431-.272l.151-.164h0l.1.242c.539-.012.694-.129.873-.659l-.2-.067h0l.419-.242a1.17,1.17,0,0,0,.623-.28.685.685,0,0,0,.226-.425l.031-.461a3.361,3.361,0,0,1,.108-.8,2.45,2.45,0,0,0-.208-1.342,5.276,5.276,0,0,0-.594-1.061,8.953,8.953,0,0,1-.748-1.288,15.607,15.607,0,0,1-1.185-3.386,53.428,53.428,0,0,1-.874-6.773,17.586,17.586,0,0,1,.079-3.011l.06-.675a10.885,10.885,0,0,1,.174-1.133c.283-.47.391-.505,1.182-.763a3.615,3.615,0,0,1,.7-.133,1.754,1.754,0,0,0,.595-.214c.16-.064.584-.207.691-.24a5.365,5.365,0,0,0,.7-.261,8.006,8.006,0,0,1,.752-.293,1.207,1.207,0,0,0,.679-.446l-.189-.129.377-.219a1.448,1.448,0,0,0,.374-.4.887.887,0,0,0,.018-.539c-.025-.142-.051-.289,0-.346l.167-.184a.774.774,0,0,0,.324-.37.372.372,0,0,1,.213-.22l-.075-.463Z" transform="translate(-91.588)" fill="#1a1311"/>
  </g>
</svg>
